<?xml version="1.0" encoding="UTF-8"?>
<svg id="Layer_1" xmlns="http://www.w3.org/2000/svg" version="1.1" viewBox="0 0 30 30">
  <!-- Generator: Adobe Illustrator 29.0.0, SVG Export Plug-In . SVG Version: 2.1.0 Build 186)  -->
  <defs>
    <style>
      .st0 {
        fill: #fff;
      }
    </style>
  </defs>
  <path class="st0" d="M7.5,3.8c0-2.1,1.7-3.8,3.8-3.8h9.4v7.5c0,1,.8,1.9,1.9,1.9h7.5v16.9c0,2.1-1.7,3.8-3.8,3.8h-15c-2.1,0-3.8-1.7-3.8-3.8v-6.6h10.2l-2.3,2.3c-.6.6-.6,1.4,0,2s1.4.6,2,0l4.7-4.7c.6-.6.6-1.4,0-2l-4.7-4.7c-.6-.6-1.4-.6-2,0s-.6,1.4,0,2l2.3,2.3H7.5V3.8ZM7.5,16.9v2.8H1.4c-.8,0-1.4-.6-1.4-1.4s.6-1.4,1.4-1.4h6.1ZM30,7.5h-7.5V0l7.5,7.5Z"/>
</svg>